PathFileType	4	(X/Y/Z)	C:\Users\Basilio\Documents\Thesis Gigler\squatting_fais\c3dfiles\077\SLS_front_pre4\markers_experimental.trc
DataRate	CameraRate	NumFrames	NumMarkers	Units	OrigDataRate	OrigDataStartFrame	OrigNumFrames
200.000000	200.000000	4	60	mm	200.000000	1189	1586
Frame#	Time	FHD			RBHD			C7			T10			CLAV			LSHO			LUUPA			LMUPA			LDUPA			LLEP			LMEP			LRAD			LUL			LRFIN			RSHO			RUPA1			RMUPA			RDUPA			RLEP			RMEP			RRAD			RUL			RUFIN			LASI			RASI			USACR			LSACR			RSACR			LTHI1			LTHI2			LTHI3			LTHI4			LLFC			LMFC			LTIB1			LTIB2			LTIB3			LTIB4			LLMAL			LHEE			LMT1			LMT2			LMT5			RTHI			RTHI2			RTHI3			RTHI4			RLFC			RMFC			RTIB1			RTIB2			RTIB3			RTIB4			RLMAL			RMMAL			RHEE			RMT1			RMT2			RMT5			LBHD			
		X1	Y1	Z1	X2	Y2	Z2	X3	Y3	Z3	X4	Y4	Z4	X5	Y5	Z5	X6	Y6	Z6	X7	Y7	Z7	X8	Y8	Z8	X9	Y9	Z9	X10	Y10	Z10	X11	Y11	Z11	X12	Y12	Z12	X13	Y13	Z13	X14	Y14	Z14	X15	Y15	Z15	X16	Y16	Z16	X17	Y17	Z17	X18	Y18	Z18	X19	Y19	Z19	X20	Y20	Z20	X21	Y21	Z21	X22	Y22	Z22	X23	Y23	Z23	X24	Y24	Z24	X25	Y25	Z25	X26	Y26	Z26	X27	Y27	Z27	X28	Y28	Z28	X29	Y29	Z29	X30	Y30	Z30	X31	Y31	Z31	X32	Y32	Z32	X33	Y33	Z33	X34	Y34	Z34	X35	Y35	Z35	X36	Y36	Z36	X37	Y37	Z37	X38	Y38	Z38	X39	Y39	Z39	X40	Y40	Z40	X41	Y41	Z41	X42	Y42	Z42	X43	Y43	Z43	X44	Y44	Z44	X45	Y45	Z45	X46	Y46	Z46	X47	Y47	Z47	X48	Y48	Z48	X49	Y49	Z49	X50	Y50	Z50	X51	Y51	Z51	X52	Y52	Z52	X53	Y53	Z53	X54	Y54	Z54	X55	Y55	Z55	X56	Y56	Z56	X57	Y57	Z57	X58	Y58	Z58	X59	Y59	Z59	X60	Y60	Z60	

1190	5.945	-284.9519958496094	1848.487915039063	-1112.062255859375	-436.9048156738282	1731.795043945313	-1054.473999023438	-459.5977172851564	1593.355590820313	-1140.759033203125	-465.9318847656251	1264.648315429688	-1071.829711914063	-295.5381469726563	1553.886108398438	-1117.941040039063	-297.2626647949219	1578.924438476563	-1292.012573242188	-117.2667388916016	1538.43994140625	-1370.153686523438	-93.32728576660158	1571.431640625	-1340.634033203125	-48.45775604248048	1540.724609375	-1367.159912109375	14.15460205078125	1554.560791015625	-1355.03662109375	21.82083129882813	1486.711303710938	-1324.436767578125	292.4159851074219	1606.105102539063	-1209.058349609375	302.2669982910157	1614.750610351563	-1288.365600585938	389.7508850097657	1635.030395507813	-1209.57373046875	-320.4431152343751	1604.372680664063	-962.2678833007815	-167.9492797851563	1578.097778320313	-842.655944824219	-140.5447235107422	1602.478271484375	-875.4981689453127	-97.89026641845706	1579.359497070313	-837.3897094726565	-32.34511184692384	1585.527587890625	-844.853454589844	-24.87526321411134	1511.228149414063	-868.7432861328127	255.1493530273438	1610.264770507813	-934.344177246094	263.8075866699219	1625.324096679688	-856.297546386719	353.3028259277344	1630.431518554688	-932.8284301757815	-265.9690246582032	1073.261352539063	-1173.072265625	-281.9366149902344	1128.773681640625	-900.8117675781252	-469.3629760742189	1148.826904296875	-1045.399658203125	-471.3303527832032	1117.165771484375	-1070.88134765625	-477.0564880371095	1118.162719726563	-1016.201721191406	-324.5289916992188	853.0111083984377	-1205.380493164063	-295.9704895019532	774.640563964844	-1198.7724609375	-248.1705169677735	777.5424804687502	-1199.2373046875	-322.3640441894532	724.2691040039064	-1177.777099609375	-293.1922302246094	577.3133544921876	-1146.902709960938	-271.9873352050782	565.2646484375001	-1013.879150390625	-271.1195373535157	356.8995361328126	-1061.84521484375	-309.2261047363282	310.5310363769532	-1128.154174804688	-276.1846618652344	307.5296020507813	-1094.245849609375	-289.2379760742188	232.0570373535157	-1056.212890625	-361.8762817382813	114.8976211547852	-1088.877807617188	-417.8632202148439	88.5311965942383	-1034.212280273438	-210.8113098144532	57.09630203247072	-1006.07763671875	-202.2689208984376	57.17889404296876	-1048.764770507813	-330.6781005859376	133.9707489013672	-1007.361999511719	-78.77225494384767	931.3615722656252	-820.971130371094	-13.00732517242432	944.6013793945315	-826.165466308594	-0.5132120847702027	975.020935058594	-837.374206542969	45.0045394897461	886.3870849609377	-837.097595214844	95.09362792968751	845.7944946289065	-840.1196899414065	117.3939971923828	852.081481933594	-967.3016357421877	220.5552215576172	770.9216308593752	-862.1389770507815	220.0223846435547	670.2170410156251	-828.552429199219	254.5846862792969	692.2116088867189	-851.5565185546877	282.7216796875001	660.3521118164064	-892.8475341796877	345.0249938964844	476.4307250976564	-853.3652343750002	354.1899719238282	499.4199523925782	-941.642761230469	326.8396301269532	400.0210571289064	-908.813171386719	491.3815307617189	559.1005249023439	-908.3795166015627	489.8661193847657	555.9512329101564	-869.7893066406252	495.0718688964845	525.6533813476564	-823.6105957031252	-418.4783630371095	1744.221923828125	-1198.338012695313	
1191	5.95	-284.9075622558594	1848.28271484375	-1111.928100585938	-436.8812255859376	1731.708129882813	-1054.333984375	-459.1643066406251	1593.206420898438	-1140.630004882813	-465.9289855957032	1264.621948242188	-1072.048950195313	-295.6444396972657	1553.812866210938	-1117.928833007813	-297.2907104492188	1578.93212890625	-1291.941650390625	-117.3728713989258	1538.542114257813	-1370.193115234375	-93.46018981933595	1571.5185546875	-1340.669189453125	-48.23740005493165	1540.840087890625	-1367.13916015625	14.13808345794678	1554.6982421875	-1354.947143554688	21.77231025695801	1486.817016601563	-1324.33251953125	292.3288879394532	1606.359130859375	-1208.925537109375	302.1335144042969	1615.019897460938	-1288.219360351563	389.7537536621095	1635.296752929688	-1209.473754882813	-320.5414733886719	1604.241333007813	-962.2492675781252	-167.9834594726563	1577.9990234375	-842.6430664062502	-140.6449890136719	1602.524658203125	-875.363952636719	-98.00968933105472	1579.237426757813	-837.2958984375002	-32.36956405639649	1585.4912109375	-844.768493652344	-24.9148292541504	1511.141479492188	-868.7854614257815	255.0577545166016	1610.3642578125	-934.2488403320315	263.7453613281251	1625.315307617188	-856.175476074219	353.2186889648438	1630.527221679688	-932.849060058594	-266.0206909179688	1073.182006835938	-1173.041259765625	-281.9983825683594	1128.685546875	-900.8217773437502	-469.369354248047	1148.801879882813	-1045.520263671875	-471.3655700683595	1117.095703125	-1070.94677734375	-477.0919799804689	1118.12353515625	-1016.302429199219	-325.1287231445313	853.0515136718752	-1204.8408203125	-296.1204833984376	774.7293090820315	-1198.935424804688	-247.4567413330079	777.1583251953127	-1199.19287109375	-322.5504150390626	724.2103271484376	-1177.90771484375	-293.2619323730469	577.3374023437501	-1147.02587890625	-271.9046020507813	565.2455444335939	-1014.234191894531	-271.2327270507813	356.7406005859376	-1062.152465820313	-309.2356262207032	310.6986083984376	-1128.424194335938	-276.2844848632813	307.6258850097657	-1094.517333984375	-289.6177368164063	232.2348327636719	-1056.735595703125	-361.8021545410157	114.8407440185547	-1089.040771484375	-417.8967895507814	88.51185607910158	-1034.211303710938	-210.8466796875001	57.07150650024415	-1006.154724121094	-202.9865722656251	56.28496551513673	-1048.830932617188	-330.7220764160157	133.8805389404297	-1007.552001953125	-78.85728454589845	931.1923828125002	-821.0247802734377	-13.06985855102539	944.350524902344	-826.2610473632815	-0.5486193299293519	974.9420166015627	-837.4014282226565	44.90904235839844	886.1213989257815	-837.2000122070315	95.03536987304689	845.545349121094	-840.153503417969	117.4691238403321	851.9243164062502	-967.322448730469	220.4626922607422	770.8073730468752	-862.1997680664065	219.9977111816407	669.9827880859376	-828.6277465820315	254.547348022461	692.0650024414064	-851.5972290039065	282.6875610351563	660.2404174804689	-892.8723754882815	345.0559082031251	476.4022521972657	-853.2224121093752	354.4886779785157	499.3387756347657	-941.696960449219	326.8749389648438	399.8426513671876	-908.889343261719	491.7694396972657	558.7587890625001	-908.4695434570315	489.9953613281251	555.8999633789064	-869.8802490234377	495.1193847656251	525.6200561523439	-823.6358032226565	-418.5046997070314	1744.161865234375	-1198.38525390625	
1192	5.955	-284.8812255859376	1848.059936523438	-1111.866821289063	-436.8861694335939	1731.640258789063	-1054.393432617188	-459.2652282714845	1593.188720703125	-1140.664184570313	-465.8992919921876	1264.526611328125	-1072.164794921875	-295.7161254882813	1553.773559570313	-1117.851928710938	-297.3153076171876	1578.982299804688	-1291.955444335938	-117.3470077514649	1538.589477539063	-1370.179443359375	-93.47502899169923	1571.6416015625	-1340.687377929688	-48.42599487304689	1540.906005859375	-1367.078369140625	14.17348766326905	1554.869384765625	-1354.911499023438	21.77616882324219	1487.02734375	-1324.280151367188	292.3104553222657	1606.579956054688	-1208.749389648438	302.0801391601563	1615.333129882813	-1288.011474609375	389.8420410156251	1636.729248046875	-1208.940673828125	-320.5800170898438	1604.092651367188	-962.2459716796877	-168.0681915283203	1577.925659179688	-842.5732421875002	-140.7225646972657	1602.329223632813	-875.3041992187502	-98.05598449707034	1579.13623046875	-837.2178955078127	-32.44956588745118	1585.431518554688	-844.7260742187502	-25.00542831420899	1511.141967773438	-868.7000122070315	255.0112304687501	1610.362182617188	-934.1492309570315	263.6014709472657	1625.349975585938	-856.1114501953127	353.1500244140626	1630.614379882813	-932.6965332031252	-266.0234069824219	1073.1943359375	-1173.052856445313	-282.0152282714844	1128.673217773438	-900.8142089843752	-469.293914794922	1148.764404296875	-1045.599853515625	-471.3804931640626	1117.004272460938	-1070.994384765625	-477.2244567871095	1117.97802734375	-1016.402465820313	-325.1712646484376	853.1450195312502	-1205.670654296875	-296.2978210449219	774.7288208007815	-1199.1279296875	-247.6849060058594	777.169128417969	-1199.412719726563	-322.7961425781251	724.2125854492189	-1178.085327148438	-293.3988952636719	577.3507080078126	-1147.166259765625	-271.7311401367188	565.1829833984376	-1014.627014160156	-271.7566833496094	356.9965209960938	-1062.569213867188	-309.2979736328126	310.6968688964844	-1128.661499023438	-276.3943481445313	307.3070373535157	-1094.9287109375	-289.2329101562501	231.8936767578126	-1056.767700195313	-362.0464477539063	114.8790740966797	-1089.150268554688	-417.869110107422	88.47908782958986	-1034.309204101563	-210.8594665527344	57.10305023193361	-1006.234130859375	-202.1735229492188	57.12878036499025	-1048.838134765625	-330.6406555175782	133.8658599853516	-1007.70263671875	-78.91412353515626	931.0708618164065	-821.0744628906252	-13.09433174133301	944.315368652344	-826.3069458007815	-0.432861477136612	974.9173583984377	-837.428649902344	44.78620910644532	885.8824462890627	-837.2893066406252	94.99607086181642	845.3796997070315	-840.2418212890627	117.4154586791992	851.6985473632815	-967.357604980469	220.4057006835938	770.6677856445315	-862.2498779296877	219.9542388916016	669.8334960937501	-828.6741943359377	254.5348358154297	691.9040527343751	-851.6431274414065	282.6856079101563	660.0501708984376	-892.8900146484377	345.1184997558594	476.174041748047	-853.3975219726565	354.2842712402344	499.281951904297	-941.7646484375002	326.9646301269532	399.6840820312501	-908.851501464844	491.7323303222657	558.6012573242189	-908.458679199219	490.1761474609376	556.1477661132814	-869.8980712890627	495.2223205566407	525.6235351562501	-823.651794433594	-418.5523681640626	1744.427734375	-1198.309204101563	
1193	5.96	-285.0162658691407	1848.107543945313	-1111.784790039063	-436.8585510253907	1731.628051757813	-1054.258178710938	-459.227508544922	1593.16162109375	-1140.72900390625	-465.9640197753907	1264.4970703125	-1072.279418945313	-295.6604309082032	1553.743896484375	-1117.911865234375	-297.2777099609376	1578.951293945313	-1291.9287109375	-117.3420944213867	1538.651245117188	-1370.094848632813	-93.37764739990236	1571.660888671875	-1340.600219726563	-48.43199539184572	1540.964477539063	-1366.999633789063	14.08390331268311	1555.001953125	-1354.843994140625	21.76959800720215	1487.148803710938	-1324.201049804688	292.2817687988282	1606.8916015625	-1208.611572265625	301.9754943847657	1615.646728515625	-1287.820678710938	389.2999877929689	1635.833374023438	-1209.295532226563	-320.8552856445313	1604.163696289063	-962.309997558594	-168.1427307128907	1577.86767578125	-842.5460205078127	-140.8351440429688	1602.261596679688	-875.2211914062502	-98.125114440918	1579.046752929688	-837.1541748046877	-32.53670883178712	1585.356079101563	-844.6311645507815	-25.05954933166505	1511.009033203125	-868.7327270507815	254.8897857666016	1610.325561523438	-933.9399414062502	263.5570373535157	1625.399291992188	-855.951110839844	353.0635375976563	1630.64111328125	-932.6790161132815	-266.0252990722657	1073.180297851563	-1173.113525390625	-281.9621887207032	1128.5830078125	-900.7959594726565	-469.2991943359376	1148.752685546875	-1045.67333984375	-471.4437561035157	1117.21923828125	-1071.081298828125	-477.2635803222657	1117.935913085938	-1016.449462890625	-325.6718139648438	853.0886230468752	-1204.9697265625	-296.5660705566407	774.7005615234377	-1199.331176757813	-247.8453369140626	777.135437011719	-1199.669067382813	-323.0653381347657	724.3088989257814	-1178.208984375	-293.4458923339844	577.2648315429689	-1147.427734375	-271.4727478027344	565.0906982421876	-1014.984191894531	-271.6623535156251	357.0627136230469	-1062.817016601563	-309.4866333007813	310.6691589355469	-1128.888549804688	-276.5957336425782	307.3011779785157	-1095.306640625	-289.6940917968751	232.0574493408204	-1057.318115234375	-362.1235351562501	114.7169342041016	-1089.369262695313	-417.8706054687501	88.4567337036133	-1034.385986328125	-210.8389129638672	57.17477035522462	-1006.341430664063	-203.0364685058594	56.03578186035158	-1048.946044921875	-330.6226501464844	133.8994903564453	-1007.935119628906	-78.97093963623048	930.947937011719	-821.1165771484377	-13.04133224487305	944.2196044921877	-826.355407714844	-0.4726887643337251	974.7681884765627	-837.5044555664065	44.70791244506837	885.587341308594	-837.3283691406252	94.93182373046876	845.2369384765627	-840.2832031250002	117.3749694824219	851.4973144531252	-967.324890136719	220.4948120117188	770.6231689453127	-862.2486572265627	219.9771118164063	669.7324218750001	-828.7294921875002	254.4998321533204	691.7462158203126	-851.6902465820315	282.7232055664063	659.9401855468751	-892.868835449219	345.1201782226563	476.1084289550782	-853.3079223632815	354.4702148437501	499.1132202148439	-941.7557373046877	327.0434265136719	399.6233215332032	-908.8037719726565	491.8395996093751	558.5577392578126	-908.4903564453127	490.0747375488282	555.8492431640626	-869.8789062500002	495.220428466797	525.4963989257814	-823.7431640625002	-418.4949340820314	1744.081909179688	-1198.25341796875	
